<svg xmlns="http://www.w3.org/2000/svg" width="38.972" height="35.482" viewBox="0 0 38.972 35.482">
  <g id="Grupo_81" data-name="Grupo 81" transform="translate(443.001 -284.103)">
    <path id="Trazado_21" data-name="Trazado 21" d="M-428.152,306.153l.675,2.442h1.058c5.671,0,11.341-.007,17.012.015a3.251,3.251,0,0,1,1.489.323,1.037,1.037,0,0,1-.082,1.954,2.685,2.685,0,0,1-1.161.286q-10.068.025-20.136.009a2.174,2.174,0,0,1-.322-.058c-.514-1.927-1.038-3.877-1.553-5.829-1.532-5.809-3.075-11.614-4.573-17.432a1.051,1.051,0,0,0-1.231-.952c-1.445.027-2.9.015-4.336-.088a2.266,2.266,0,0,1-1.415-.638,1.543,1.543,0,0,1-.2-1.339,1.4,1.4,0,0,1,1.058-.7c2.226-.063,4.455-.046,6.682-.015.889.012,1.309.625,1.52,1.419.423,1.59.851,3.178,1.291,4.823h1.066q12.281,0,24.563.01a4.369,4.369,0,0,1,1.6.259,1.772,1.772,0,0,1,.927,2.523c-1.148,2.993-2.319,5.977-3.482,8.964-.356.915-.769,1.812-1.061,2.747a1.691,1.691,0,0,1-1.878,1.288c-5.468-.021-10.936-.01-16.4-.009ZM-431.745,293a4.983,4.983,0,0,0,.079.527c.9,3.2,1.815,6.389,2.681,9.595a.857.857,0,0,0,1,.767q8.2-.037,16.407,0a.956.956,0,0,0,1.055-.753c.806-2.165,1.66-4.312,2.494-6.467.463-1.2.921-2.4,1.408-3.665Z" transform="translate(0)" fill="#328093"/>
    <path id="Trazado_22" data-name="Trazado 22" d="M-285.517,456.1a3.391,3.391,0,0,1-3.389-3.417,3.421,3.421,0,0,1,3.451-3.374,3.359,3.359,0,0,1,3.353,3.437A3.3,3.3,0,0,1-285.517,456.1Zm0-4.694a1.338,1.338,0,0,0-1.271,1.293,1.3,1.3,0,0,0,1.326,1.31,1.3,1.3,0,0,0,1.267-1.279A1.319,1.319,0,0,0-285.514,451.41Z" transform="translate(-127.336 -136.521)" fill="#328093"/>
    <path id="Trazado_23" data-name="Trazado 23" d="M-356.882,456.1a3.353,3.353,0,0,1-3.428-3.365,3.4,3.4,0,0,1,3.383-3.43,3.422,3.422,0,0,1,3.443,3.383A3.387,3.387,0,0,1-356.882,456.1Zm-.062-4.7a1.3,1.3,0,0,0-1.242,1.391,1.272,1.272,0,0,0,1.325,1.21,1.349,1.349,0,0,0,1.269-1.294A1.357,1.357,0,0,0-356.944,451.4Z" transform="translate(-68.332 -136.515)" fill="#328093"/>
  </g>
</svg>
